<svg id="图层_1" data-name="图层 1" xmlns="http://www.w3.org/2000/svg" viewBox="0 0 344.19 103.74"><defs><style>.cls-1,.cls-2{fill:#e3711e;stroke:#fff;stroke-miterlimit:10;stroke-width:2px;}.cls-2{isolation:isolate;font-size:89.86px;font-family:ZoomlaGusong-A103;letter-spacing:-16px;}</style></defs><title>logo</title><path class="cls-1" d="M87.63-94.68c4,5,5.67,10.17,4.21,14.75-3.53,11.06-24,14.41-45.67,7.49S9.74-93.92,13.3-105c2.81-8.8,16.34-12.72,32.69-10.47-27.33-8.38-51.18-6.91-55.33,4.12-3.51,9.33,8.1,22.82,27.56,33.84,2.67,1.51,15.44,47.63,18.38,49l19.19,3.36S73.2-60,74.23-60c14.7,0.91,25.57-2.22,28.24-9.33S99.11-85.74,87.63-94.68ZM46.53-36.37S32.33-70.52,33.72-70s3,1.2,4.49,1.77a139.58,139.58,0,0,0,25,6.92C64.47-61,46.53-36.37,46.53-36.37h0Z" transform="translate(10.96 127.75)"/><text class="cls-2" transform="translate(109.73 77.52)">氿度伞</text></svg>